<svg height="300px" width="300px"  fill="#000000" xmlns="http://www.w3.org/2000/svg" xmlns:xlink="http://www.w3.org/1999/xlink" xml:space="preserve" version="1.1" style="shape-rendering:geometricPrecision;text-rendering:geometricPrecision;image-rendering:optimizeQuality;" viewBox="0 0 441.16 431.3" x="0px" y="0px" fill-rule="evenodd" clip-rule="evenodd"><defs><style type="text/css">.fil0 {fill:#000000}</style></defs><g><path class="fil0" d="M441.15 74.85l0 282.93c0,40.44 -33.08,73.52 -73.52,73.52l-294.1 0c-40.44,0 -73.52,-33.08 -73.52,-73.52l0 -282.93c0,-21.23 17.31,-38.55 38.54,-38.55l33.55 0 0 -19.2c0,-9.42 7.69,-17.1 17.1,-17.1 9.42,0 17.1,7.68 17.1,17.1l0 19.2 53.39 0 0 -19.2c0,-9.42 7.68,-17.1 17.1,-17.1 9.41,0 17.1,7.68 17.1,17.1l0 19.2 53.38 0 0 -19.2c0,-9.42 7.69,-17.1 17.1,-17.1 9.42,0 17.1,7.68 17.1,17.1l0 19.2 53.39 0 0 -19.2c0,-9.42 7.68,-17.1 17.1,-17.1 9.41,0 17.1,7.68 17.1,17.1l0 19.2 33.55 0c21.23,0 38.54,17.32 38.54,38.55zm-408.6 42.02l0 240.91c0,22.48 18.5,40.99 40.98,40.99l294.1 0c22.48,0 40.98,-18.51 40.98,-40.99l0 -240.91 -376.06 0z"></path><path class="fil0" d="M304.35 277.9c-4.14,0 -7.51,3.37 -7.51,7.51l0 54.82c0,4.13 3.37,7.5 7.51,7.5l54.82 0c4.13,0 7.5,-3.37 7.5,-7.5l0 -54.82c0,-4.14 -3.37,-7.51 -7.5,-7.51l-54.82 0z"></path><path class="fil0" d="M193.17 277.9c-4.13,0 -7.51,3.37 -7.51,7.51l0 54.82c0,4.13 3.38,7.5 7.51,7.5l54.82 0c4.13,0 7.51,-3.37 7.51,-7.5l0 -54.82c0,-4.14 -3.38,-7.51 -7.51,-7.51l-54.82 0z"></path><path class="fil0" d="M81.99 277.9c-4.13,0 -7.51,3.37 -7.51,7.51l0 54.82c0,4.13 3.38,7.5 7.51,7.5l54.82 0c4.13,0 7.51,-3.37 7.51,-7.5l0 -54.82c0,-4.14 -3.38,-7.51 -7.51,-7.51l-54.82 0z"></path><path class="fil0" d="M304.35 167.9c-4.14,0 -7.51,3.38 -7.51,7.51l0 54.82c0,4.13 3.37,7.51 7.51,7.51l54.82 0c4.13,0 7.5,-3.38 7.5,-7.51l0 -54.82c0,-4.13 -3.37,-7.51 -7.5,-7.51l-54.82 0z"></path><path class="fil0" d="M193.17 167.9c-4.13,0 -7.51,3.38 -7.51,7.51l0 54.82c0,4.13 3.38,7.51 7.51,7.51l54.82 0c4.13,0 7.51,-3.38 7.51,-7.51l0 -54.82c0,-4.13 -3.38,-7.51 -7.51,-7.51l-54.82 0z"></path><path class="fil0" d="M81.99 167.9c-4.13,0 -7.51,3.38 -7.51,7.51l0 54.82c0,4.13 3.38,7.51 7.51,7.51l54.82 0c4.13,0 7.51,-3.38 7.51,-7.51l0 -54.82c0,-4.13 -3.38,-7.51 -7.51,-7.51l-54.82 0z"></path></g></svg>