<svg height='300px' width='300px'  fill="#000000" xmlns="http://www.w3.org/2000/svg" xmlns:xlink="http://www.w3.org/1999/xlink" version="1.1" x="0px" y="0px" viewBox="0 0 500 500" style="enable-background:new 0 0 500 500;" xml:space="preserve"><g><path d="M144.2,376.1C144.2,376.1,144.2,376.1,144.2,376.1c13.5-0.7,26.1-6.3,35.7-15.9L325,215.1c1.7,1.1,3.6,1.7,5.5,1.7   c2.6,0,5.1-1,7.1-2.9l34-34l3.1,13.9l-81,81c-3.9,3.9-3.9,10.2,0,14.1c2,2,4.5,2.9,7.1,2.9c2.6,0,5.1-1,7.1-2.9l84.9-84.9   c2.4-2.4,3.4-5.9,2.7-9.3l-7.1-31.6l6.5-6.5c23.7-23.7,23.7-62.2,0-85.9l-2.5-2.5c-23.7-23.7-62.2-23.7-85.9,0l-57.3,57.3   c-1.9,1.9-2.9,4.4-2.9,7.1c0,2,0.6,3.9,1.7,5.5L102.6,283.3c-9.4,9.4-15,21.8-15.8,35l-2.8,44.4l-18.6,18.6   c-3.9,3.9-3.9,10.2,0,14.1c2,2,4.5,2.9,7.1,2.9s5.1-1,7.1-2.9l17-17L144.2,376.1z M320.6,82.3c15.9-15.9,41.7-15.9,57.6,0l2.5,2.5   c15.9,15.9,15.9,41.7,0,57.6l-50.2,50.2l-19.7-19.7l-40.4-40.4L320.6,82.3z M106.7,319.7c0.5-8.4,4.1-16.2,10-22.2l145.2-145.2   l24.4,24.4l24.4,24.4l-145,145c-6,6-14,9.6-22.6,10h0l-38.9,2L106.7,319.7z"></path><path d="M436.1,279.7c-0.9-5.4-6.1-9.1-11.6-8.2c-5.4,0.9-9.1,6.1-8.2,11.6c8.5,49.4-30.2,76.5-64.1,90.5c-8.2,3.4-17,6.4-26.3,8.9   c-1.9-2.1-4.1-4.1-6.7-6.1c-19.6-14.9-43.1-24.6-66.3-27.2c-21.6-2.4-40.4,1.4-51.6,10.5c-10.4,8.5-13.1,20.8-7.2,32.9   c7.4,15.2,35.3,18.9,57.5,19.3c16.6,0.3,34.5-1.2,52-4.2c-11.9,6.5-35.4,14.1-72.9,18.6c-46.1,5.5-93.4,3.7-120.7-4.7   c-5.3-1.6-10.9,1.3-12.5,6.6c-1.6,5.3,1.3,10.9,6.6,12.5c20.6,6.3,47.2,8.7,73.4,8.7c19.6,0,39-1.3,55.5-3.3   c31.3-3.7,85.5-13.5,97.5-36.8c1.4-2.7,2.2-5.4,2.4-8.2c3-0.9,6-1.8,9-2.7c30.3-9.7,54.9-24,71-41.4   C433.5,335.4,441.2,309.3,436.1,279.7z M261.5,392c-31.9,0.7-47.1-5.2-49.2-8.1c-1.8-3.7-1.3-6.1,1.9-8.7   c11.3-9.2,50.1-12.2,87.1,12.7C288.1,390.3,274.6,391.7,261.5,392z"></path></g></svg>