<svg height="300px" width="300px"  fill="#000000" xmlns="http://www.w3.org/2000/svg" xmlns:xlink="http://www.w3.org/1999/xlink" version="1.1" x="0px" y="0px" viewBox="0 0 100 100" enable-background="new 0 0 100 100" xml:space="preserve"><path d="M95.833,0h-18.75c-4.167,0-4.167,0-4.167,4.167v91.667c0,4.167,0,4.167,4.167,4.167h18.75C100,100,100,100,100,95.833V4.167  C100,0,100,0,95.833,0z M22.917,0H4.167C0,0,0,0,0,4.167v91.667C0,100,0,100,4.167,100h18.75c4.167,0,4.167,0,4.167-4.167V4.167  C27.083,0,27.083,0,22.917,0z M60.417,0H39.583c-4.167,0-4.167,0-4.167,4.167v91.667c0,4.167,0,4.167,4.167,4.167h20.833  c4.167,0,4.167,0,4.167-4.167V4.167C64.583,0,64.583,0,60.417,0z"></path></svg>