<svg height='300px' width='300px'  fill="#000000" xmlns="http://www.w3.org/2000/svg" xmlns:xlink="http://www.w3.org/1999/xlink" version="1.1" x="0px" y="0px" viewBox="0 0 100 100" enable-background="new 0 0 100 100" xml:space="preserve"><path fill-rule="evenodd" clip-rule="evenodd" d="M63.458,62.317c-0.671,0.223-1.085,0.064-1.589-0.324  c-0.521-0.4-1.098-0.837-1.775-0.167c-0.222,0.219-0.595,0.178-0.841,0.033c-1.314-0.775-2.505,0.387-3.783,0.217  c-0.353-0.048-0.216,0.378-0.311,0.584c-0.335,0.721-0.871,1.216-1.638,1.459c-2.358,0.749-3.298,2.355-2.686,4.761  c0.242,0.948,0.066,1.227-0.921,1.001c-1.521-0.348-2.557-1.046-3.199-2.624c-0.649-1.594-1.643-3.107-2.747-4.439  c-1.16-1.398-2.391-1.225-3.576,0.188c-0.313,0.375-0.635,0.512-1.091,0.269c-1.02-0.542-1.864-1.141-2.204-2.403  c-0.563-2.092-3.968-4.299-5.502-3.459c-1.281,0.701-10.352-2.047-10.352-2.047s-3.004-1.551-4.768-1.559  c-0.497-0.003-1.051-0.026-1.216-0.666c-0.562-2.181-2.428-3.084-4.121-4.107c-0.637-0.385-1.242-0.56-1.184-1.507  c0.028-0.45-0.241-1.011-0.551-1.371c-0.992-1.156-1.167-2.775-1.226-3.978c-0.063-1.331-1.005-1.997-1.166-3.05  c-0.26-1.699-1.142-3.392-0.205-5.15c0.155-0.291,0.338-0.662,0.283-0.954c-0.609-3.259,1.602-5.798,2.257-8.736  c0.328-1.474,0.108-2.787-0.048-4.173c-0.032-0.289-0.195-0.607,0.081-0.821c0.293-0.227,0.551,0.05,0.794,0.186  c0.714,0.397,1.659,0.391,2.045,1.286c0.15-0.121,0.265-0.167,0.271-0.225c0.23-2.128,0.228-2.124,2.426-1.695  c12.126,2.364,24.373,3.189,36.708,2.841c0.371-0.01,0.823,0.004,1.089-0.193c0.51-0.379,0.752-0.365,1.005,0.241  c0.234,0.562,0.866,0.593,1.313,0.556c1.804-0.148,3.392,1.225,5.239,0.69c0.147-0.043,0.465,0.092,0.522,0.223  c0.142,0.331-0.205,0.412-0.412,0.497c-0.981,0.404-1.495,1.304-2.305,1.994c2.178,0.395,4.065-1.952,5.49-1.738  c0.813,0.122,1.718,2.037,2.953,1.446c0.911-0.436,1.776-0.653,2.751-0.192c0.355,0.167,0.799,0.244,0.732,0.698  c-0.07,0.481-0.615,0.474-0.93,0.433c-0.76-0.099-1.402,0.162-2.06,0.438c-1.497,0.63-1.538,0.677-2.146,2.372  c0.38,0.154,0.401-0.36,0.788-0.369c-0.332,1.748-0.828,3.485-0.305,5.263c0.185,0.629,0.228,1.498,1.049,1.511  c0.871,0.013,1.054-0.845,1.213-1.543c0.142-0.628,0.025-1.234-0.232-1.84c-0.665-1.553-0.4-2.557,0.907-3.756  c0.082-0.075,0.125-0.213,0.152-0.33c0.362-1.523,1.295-1.565,2.424-0.882c1.065,0.645,1.031,1.605,0.611,2.63  c-0.102,0.248-0.433,0.449-0.185,0.785c0.085,0.008,0.174,0.043,0.243,0.02c0.461-0.153,0.701-1.153,1.3-0.556  c0.61,0.61,0.962,1.471,0.69,2.411c-0.055,0.194-0.239,0.348-0.315,0.539c-0.219,0.546-0.892,1.104-0.313,1.683  c0.516,0.514,1.302,0.451,1.896,0.078c1.412-0.886,2.916-1.663,4.034-2.953c0.134-0.154,0.334-0.377,0.305-0.528  c-0.322-1.666,0.853-1.436,1.831-1.497c1.216-0.075,1.992-0.472,2.072-1.954c0.061-1.126,0.737-2.138,1.995-2.477  c1.136-0.306,2.282-0.568,3.415-0.88c1.597-0.438,2.296-1.341,2.399-2.972c0.037-0.582,0.173-1.156,0.236-1.736  c0.149-1.325,1.317-1.223,2.139-1.369c0.786-0.141,0.927,0.73,1.074,1.317c0.235,0.934,0.69,1.717,1.438,2.296  c0.775,0.599,0.488,1.002-0.142,1.444c-0.772,0.542-1.536,1.051-2.21,1.779c-1.799,1.943-1.955,3.194-0.261,5.242  c-1.5,0.807-4.084,1.207-4.488,2.416c-0.019,0.053,0.062,0.135,0.094,0.203c0.339-0.084,0.679-0.168,1.036-0.257  c0.009,0.154,0.04,0.284,0.013,0.298c-1.158,0.572-2.033,1.202-1.767,2.801c0.082,0.494,0.086,2.049-1.922,1.198  c1.662,1.563,1.401,3.97,0.388,4.045c-0.973,0.072-1.235,0.494,0.091,1.639c0.176,0.152,0.21,0.715,0.072,0.94  c-0.304,0.497-0.103,0.67,0.317,0.805c0.154,0.05,0.445,0.165,0.355,0.228c-0.852,0.593-0.707,1.782-1.308,2.372  c-1.229,1.208-2.482,2.387-3.409,3.84c-0.365,0.572-0.741,1.126-1.223,1.58c-2.014,1.899-2.418,3.699-1.177,6.155  c0.886,1.757,1.876,3.464,2.882,5.157c0.691,1.164,0.767,2.362,0.486,3.635c-0.1,0.455-0.336,0.758-0.787,0.886  c-0.461,0.133-0.657-0.192-0.926-0.473c-0.886-0.927-1.892-1.751-2.684-2.748c-0.639-0.806-1.1-1.797-1.155-2.864  c-0.104-1.976-2.435-3.384-4.107-2.433c-0.48,0.273-0.882,0.36-1.348-0.096c-0.824-0.804-1.896-0.855-2.947-0.692  C67.62,59.449,64.171,62.081,63.458,62.317z"></path><path fill-rule="evenodd" clip-rule="evenodd" d="M22.111,71.02c-1.474,3.19-3.702,5.302-7.409,5.456  c0.643-0.354,1.259-0.779,1.938-1.036c0.526-0.199,0.967-0.499,1.404-0.813c0.438-0.315,1.019-0.655,0.885-1.264  c-0.133-0.595-0.845-0.592-1.321-0.74c-0.789-0.249-2.439-2.156-2.382-3.096c0.063-1.036,0.799-1.573,1.775-1.822  c0.311-0.079,0.71-0.188,0.681-0.622c-0.032-0.489-0.479-0.358-0.783-0.424c-0.164-0.034-0.332-0.058-0.499-0.067  c-0.688-0.039-0.851-0.579-1.069-1.084c-0.15-0.35-0.032-0.587,0.282-0.71c0.479-0.186,0.955-0.631,1.487-0.076  c0.095,0.099,0.261,0.129,0.539,0.257c-0.062-0.306-0.072-0.462-0.124-0.602c-0.284-0.757-1.629-1.556-0.867-2.161  c1.288-1.021,2.512-2.829,4.653-1.839c0.984,0.454,2.03,0.568,3.06,0.526c1.039-0.043,1.422,0.388,1.596,1.324  c0.444,2.393,0.938,4.777,1.429,7.16c0.215,1.045,1.836,1.82,2.69,1.267c0.456-0.297,0.687,0.021,0.998,0.202  c1.117,0.647,1.812,1.854,3.122,2.283c0.403,0.131,0.725,0.831,0.291,1.138c-0.413,0.292-0.999,0.973-1.64,0.301  c-0.752-0.789-1.73-1.281-2.484-2.097c-1.331-1.44-4.775-2.116-7.101-0.668c-0.299,0.186-0.586,0.615-0.983,0.312  C21.932,71.86,22.202,71.424,22.111,71.02z"></path><path fill-rule="evenodd" clip-rule="evenodd" d="M48.491,80.155c0.331-0.408-0.021-1.347,0.854-1.237  c0.837,0.103,1.736,0.644,1.774,1.505c0.038,0.908-1.125,1.175-1.737,1.268C48.445,81.831,48.873,80.69,48.491,80.155z"></path><path fill-rule="evenodd" clip-rule="evenodd" d="M21.701,73.089c0.424,0.912,0.012,1.424-0.632,1.812  c-0.18,0.109-0.302-0.038-0.356-0.207C20.403,73.738,21.422,73.662,21.701,73.089z"></path><path fill-rule="evenodd" clip-rule="evenodd" d="M46.953,77.247c0.665-0.19,1.1-0.156,1.393,0.264  c0.145,0.208-0.022,0.389-0.237,0.458C47.521,78.16,47.354,77.686,46.953,77.247z"></path><path fill-rule="evenodd" clip-rule="evenodd" d="M40.859,74.568c-0.02,0.293-0.195,0.45-0.47,0.435  c-0.247-0.014-0.497-0.111-0.468-0.429c0.021-0.225,0.205-0.335,0.418-0.365C40.614,74.172,40.812,74.264,40.859,74.568z"></path><path fill-rule="evenodd" clip-rule="evenodd" d="M44.485,76.105c-0.012,0.302-0.23,0.312-0.438,0.292  c-0.303-0.028-0.605-0.111-0.592-0.496c0.009-0.239,0.224-0.365,0.438-0.356C44.231,75.559,44.379,75.823,44.485,76.105z"></path></svg>